# xmcd
#
# Track frame offsets:
#	150
#	15110
#	28910
#	43960
#	59290
#	77537
#	94010
#	106322
#	122662
#	135450
#	149240
#	162770
#	182100
#	200935
#	216095
#	234725
#	255070
#	255912
#	256900
#
# Disc length: 3460
#
# Revision: 1
# Processed by: cddbd v1.5.1PL0 Copyright (c) Steve Scherf et al.
# Submitted via: VisiTrax 2.9.5.180 - For more info visit www.synapsa.com
# Normalized: r0:DSETVAR1
#
DISCID=040d8213
DTITLE=Various Artist - CDX 290 April 2002
DYEAR=2002
DGENRE=
TTITLE0=Phil Vassar - American child
TTITLE1=Sonya Isaacs - Baby don't you let go
TTITLE2=Pinkmonkey - Barbed wire and roses
TTITLE3=Jo Dee Messina - Dare to dream
TTITLE4=Rebecca Lynn Howard - Forgive
TTITLE5=J Michael Harter - Hard call to make
TTITLE6=Jim Lauderdale - Midnight will become day
TTITLE7=Blackhawk - One night in New Orleans
TTITLE8=Jim Lauderdale/Ralph Stanley - She's looking at me
TTITLE9=Rodney Atkins - Sing along
TTITLE10=Daryle Singletar - That's why I sing this way
TTITLE11=Holly Lamar - Unkissed
TTITLE12=Martina McBride - Where would you be
TTITLE13=Sabina - 9.999.999 tears
TTITLE14=Kelly McQuire - I cried for mama
TTITLE15=Wendy Manley - Just listen
TTITLE16=Pinkmonkey - Liners
TTITLE17=Pinkmonkey - Liners
TTITLE18=Pinkmonkey - Liners
EXTD=
EXTT0=
EXTT1=
EXTT2=
EXTT3=
EXTT4=
EXTT5=
EXTT6=
EXTT7=
EXTT8=
EXTT9=
EXTT10=
EXTT11=
EXTT12=
EXTT13=
EXTT14=
EXTT15=
EXTT16=
EXTT17=
EXTT18=
PLAYORDER=
